<?xml version="1.0" encoding="UTF-8" standalone="no"?>
<!-- Created with Inkscape (http://www.inkscape.org/) -->

<svg
   xmlns:dc="http://purl.org/dc/elements/1.1/"
   xmlns:cc="http://creativecommons.org/ns#"
   xmlns:rdf="http://www.w3.org/1999/02/22-rdf-syntax-ns#"
   xmlns:svg="http://www.w3.org/2000/svg"
   xmlns="http://www.w3.org/2000/svg"
   xmlns:sodipodi="http://sodipodi.sourceforge.net/DTD/sodipodi-0.dtd"
   xmlns:inkscape="http://www.inkscape.org/namespaces/inkscape"
   width="100.06659mm"
   height="99.980034mm"
   viewBox="0 0 100.06659 99.980034"
   version="1.1"
   id="svg8"
   sodipodi:docname="backgroundPattern.svg"
   inkscape:version="0.92.1 r15371">
  <defs
     id="defs2">
    <inkscape:path-effect
       effect="spiro"
       id="path-effect125"
       is_visible="true" />
    <inkscape:path-effect
       effect="spiro"
       id="path-effect121"
       is_visible="true" />
  </defs>
  <sodipodi:namedview
     id="base"
     pagecolor="#ffffff"
     bordercolor="#666666"
     borderopacity="1.0"
     inkscape:pageopacity="0.0"
     inkscape:pageshadow="2"
     inkscape:zoom="1.4142136"
     inkscape:cx="188.54996"
     inkscape:cy="223.43119"
     inkscape:document-units="mm"
     inkscape:current-layer="layer4"
     showgrid="false"
     inkscape:window-width="1536"
     inkscape:window-height="801"
     inkscape:window-x="-8"
     inkscape:window-y="-8"
     inkscape:window-maximized="1" />
  <metadata
     id="metadata5">
    <rdf:RDF>
      <cc:Work
         rdf:about="">
        <dc:format>image/svg+xml</dc:format>
        <dc:type
           rdf:resource="http://purl.org/dc/dcmitype/StillImage" />
      </cc:Work>
    </rdf:RDF>
  </metadata>
  <g
     inkscape:groupmode="layer"
     id="layer2"
     inkscape:label="Base Square"
     transform="translate(-0.04924227,-197.10523)">
    <rect
       style="display:inline;fill:#5f8dd3;fill-opacity:1;stroke-width:1.45850372"
       id="rect14"
       width="100.00102"
       height="99.954552"
       x="-0.021381652"
       y="197.13036"
       transform="skewX(0.02390648)"
       inkscape:export-xdpi="96"
       inkscape:export-ydpi="96" />
    <path
       style="fill:#d4aa00;fill-opacity:1;stroke-width:0.06752515"
       d="m 0.07547813,205.14778 v -0.79307 l 3.66191057,-3.60225 3.6619106,-3.60223 h 0.6292083 0.6292088 l -0.401049,0.41938 c -1.3112377,1.37116 -8.12817781,8.37126 -8.1522226,8.37126 -0.01593146,0 -0.02896666,-0.35689 -0.02896667,-0.79309 z"
       id="path208"
       inkscape:connector-curvature="0"
       inkscape:export-xdpi="96"
       inkscape:export-ydpi="96" />
    <path
       style="fill:#d4aa00;fill-opacity:1;stroke-width:0.06731743"
       d="m 0.07547813,211.89901 v -1.12056 l 6.72882207,-6.81411 6.7288218,-6.81411 h 1.037293 c 0.570511,0 1.037293,0.0167 1.037293,0.037 0,0.0306 -12.5067244,12.78635 -14.83276302,15.12815 l -0.69946685,0.7042 z"
       id="path210"
       inkscape:connector-curvature="0"
       inkscape:export-xdpi="96"
       inkscape:export-ydpi="96" />
    <path
       style="fill:#d4aa00;fill-opacity:1;stroke-width:0.07263038"
       d="m 1.8974193,198.91883 c 1.0164976,-0.98055 1.8567486,-1.78282 1.8672248,-1.78282 0.010469,0 0.019049,0.80227 0.019049,1.78282 v 1.78285 H 1.916467 0.04924227 Z"
       id="path214"
       inkscape:connector-curvature="0"
       inkscape:export-xdpi="96"
       inkscape:export-ydpi="96" />
    <path
       style="display:inline;fill:#d4aa00;fill-opacity:1;stroke-width:0.06700046"
       d="m 100.05631,205.10714 v -0.79159 l -3.612014,-3.59545 -3.612014,-3.59546 h -0.620634 -0.620635 l 0.395584,0.41859 c 1.293369,1.36858 8.017423,8.35551 8.041143,8.35551 0.0158,0 0.0286,-0.35622 0.0286,-0.7916 z"
       id="path208-5"
       inkscape:connector-curvature="0"
       inkscape:export-xdpi="96"
       inkscape:export-ydpi="96" />
    <path
       style="display:inline;fill:#d4aa00;fill-opacity:1;stroke-width:0.06702861"
       d="m 100.05631,211.85804 v -1.11938 l -6.678163,-6.807 -6.678166,-6.80702 h -1.029489 c -0.566208,0 -1.02948,0.0167 -1.02948,0.037 0,0.0306 12.412573,12.77302 14.721097,15.11236 l 0.694201,0.70349 z"
       id="path210-0"
       inkscape:connector-curvature="0"
       inkscape:export-xdpi="96"
       inkscape:export-ydpi="96" />
    <path
       style="display:inline;fill:#d4aa00;fill-opacity:1;stroke-width:0.07265607"
       d="m 98.301425,198.94819 c -0.984032,-1.01363 -1.797438,-1.84296 -1.807586,-1.84296 -0.0096,0 -0.01843,0.82933 -0.01843,1.84296 v 1.84298 h 1.807586 1.807595 z"
       id="path214-5"
       inkscape:connector-curvature="0"
       inkscape:export-xdpi="96"
       inkscape:export-ydpi="96" />
    <path
       style="display:inline;fill:#d4aa00;fill-opacity:1;stroke-width:0.0669743"
       d="m 100.08958,289.1085 v 0.79098 l -3.612024,3.59264 -3.612013,3.59265 h -0.620634 -0.620645 l 0.395594,-0.41825 c 1.293369,-1.36752 8.017422,-8.34899 8.041142,-8.34899 0.0158,0 0.0286,0.35593 0.0286,0.79097 z"
       id="path208-0"
       inkscape:connector-curvature="0"
       inkscape:export-xdpi="96"
       inkscape:export-ydpi="96" />
    <path
       style="display:inline;fill:#d4aa00;fill-opacity:1;stroke-width:0.0669587"
       d="m 100.08958,282.35588 v 1.11707 l -6.678172,6.79281 -6.678162,6.79281 h -1.029489 c -0.566218,0 -1.046016,0.0329 -1.046016,0.0128 0,-0.0305 12.429105,-12.79594 14.737639,-15.1304 l 0.6942,-0.70201 z"
       id="path210-5"
       inkscape:connector-curvature="0"
       sodipodi:nodetypes="ccccssccc"
       inkscape:export-xdpi="96"
       inkscape:export-ydpi="96" />
    <path
       style="display:inline;fill:#d4aa00;fill-opacity:1;stroke-width:0.0728825"
       d="m 98.302359,295.22263 c -0.997403,1.00629 -1.821872,1.8296 -1.832146,1.8296 -0.0098,0 -0.01869,-0.82331 -0.01869,-1.8296 V 293.393 h 1.832147 1.83216 z"
       id="path214-2"
       inkscape:connector-curvature="0"
       inkscape:export-xdpi="96"
       inkscape:export-ydpi="96" />
    <path
       style="display:inline;fill:#d4aa00;fill-opacity:1;stroke-width:0.06687804"
       d="m 0.08507231,289.08036 v 0.79309 l 3.59206159,3.60223 3.5920606,3.60224 h 0.6172062 0.6172074 l -0.3933992,-0.41937 c -1.2862266,-1.37117 -7.97313604,-8.37126 -7.99672279,-8.37126 -0.01563138,0 -0.0284098,0.35689 -0.0284098,0.79307 z"
       id="path208-1"
       inkscape:connector-curvature="0"
       inkscape:export-xdpi="96"
       inkscape:export-ydpi="96" />
    <path
       style="display:inline;fill:#d4aa00;fill-opacity:1;stroke-width:0.0669257"
       d="m 0.10160877,282.32914 v 1.12056 l 6.65073983,6.81411 6.6507384,6.81411 h 1.025258 c 0.56389,0 1.025256,-0.0167 1.025256,-0.0369 0,-0.0306 -12.3615951,-12.78635 -14.66064205,-15.12814 l -0.69135018,-0.70421 z"
       id="path210-4"
       inkscape:connector-curvature="0"
       inkscape:export-xdpi="96"
       inkscape:export-ydpi="96" />
    <path
       style="display:inline;fill:#d4aa00;fill-opacity:1;stroke-width:0.07194974"
       d="m 1.8841043,295.25084 c 0.9910354,0.98699 1.8102392,1.79453 1.8204528,1.79453 0.010258,0 0.018575,-0.80754 0.018575,-1.79453 V 293.4563 H 1.9026798 0.08222683 Z"
       id="path214-0"
       inkscape:connector-curvature="0"
       inkscape:export-xdpi="96"
       inkscape:export-ydpi="96" />
    <path
       style="fill:#d4aa00;fill-opacity:1;stroke-width:0.70710677"
       d="M 172.2865,376.91076 C 143.99996,373.46329 124.39291,367.5947 101.79989,355.81344 62.458203,335.29849 31.078573,300.48447 14.328405,258.76853 -3.3079605,214.84551 -3.3393813,163.0317 14.243806,119.2616 39.637345,56.049075 96.003396,11.802414 163.44767,2.1383867 175.97393,0.34351032 202.85888,0.32835166 215.06646,2.1092821 268.60945,9.9205195 315.72001,39.359867 345.46342,83.59423 c 32.8118,48.79766 41.08222,108.95081 22.66238,164.83008 -6.66495,20.2191 -16.07243,37.95445 -29.56955,55.74571 -7.4885,9.871 -25.53025,27.73225 -35.62874,35.27231 -25.75481,19.22988 -54.2135,31.19123 -86.09328,36.1855 -7.13766,1.11818 -38.49088,2.02112 -44.54773,1.28293 z m 40.65864,-23.2454 c 37.04498,-5.72968 70.83916,-22.96248 95.75074,-48.82658 22.68985,-23.5574 37.98466,-53.77674 44.00051,-86.93579 1.31798,-7.2646 1.54304,-11.13008 1.56448,-26.87005 0.0218,-16.02357 -0.18043,-19.55023 -1.5748,-27.45916 -3.19435,-18.11855 -7.19965,-30.28807 -15.26769,-46.38871 C 328.7973,99.980786 321.77505,90.063296 308.46289,76.29131 293.95289,61.280129 280.79309,51.569621 263.14972,42.855095 239.67362,31.259632 216.84688,25.943945 190.46664,25.92931 157.66636,25.911116 126.04997,35.378104 99.361672,53.209144 89.105244,60.061692 82.517689,65.645747 72.202974,76.230689 49.680879,99.342827 35.296071,126.70719 28.729228,158.93124 c -3.169491,15.55296 -3.167675,48.14597 0.0035,63.3319 8.08907,38.73612 29.092077,73.1552 59.408044,97.35611 23.591948,18.83319 55.068468,31.62888 86.267018,35.06887 8.13476,0.89695 29.85194,0.32058 38.53732,-1.02276 z"
       id="path41"
       inkscape:connector-curvature="0"
       transform="matrix(0.26458333,0,0,0.26458333,0.04924227,197.10523)" />
  </g>
  <g
     inkscape:groupmode="layer"
     id="layer3"
     inkscape:label="Corners"
     transform="translate(-0.04924227,-197.10523)" />
  <g
     inkscape:label="Base Circle"
     inkscape:groupmode="layer"
     id="layer1"
     style="display:inline"
     transform="translate(-0.04924227,-197.10523)">
    <ellipse
       style="fill:#d4aa00;fill-opacity:1;stroke-width:1.49623561"
       id="path12"
       cx="50.042572"
       cy="247.10799"
       rx="49.937054"
       ry="49.977276"
       transform="skewX(0.02390648)"
       inkscape:export-xdpi="96"
       inkscape:export-ydpi="96" />
  </g>
  <g
     inkscape:groupmode="layer"
     id="layer4"
     inkscape:label="Inner Circle"
     transform="translate(-0.04924227,-197.10523)">
    <ellipse
       style="fill:#5f8dd3;fill-opacity:1;stroke-width:0.26555809"
       id="path47"
       cx="49.652534"
       cy="247.27512"
       rx="29.92359"
       ry="30.092634"
       inkscape:export-xdpi="96"
       inkscape:export-ydpi="96" />
  </g>
  <g
     inkscape:groupmode="layer"
     id="layer5"
     inkscape:label="Inner Details"
     transform="translate(-0.04924227,-197.10523)">
    <path
       style="fill:#d4aa00;fill-opacity:1;stroke-width:0.09388897"
       d="m 79.722176,250.45285 c -0.02869,0.16793 -0.08055,0.59068 -0.115204,0.93946 l -0.06299,0.63413 -9.02043,1e-4 c -4.961223,7e-5 -10.567235,0.0281 -12.457797,0.0619 l -3.437368,0.0618 -0.064,4.89362 c -0.03521,2.69149 -0.05066,6.80337 -0.03441,9.1375 l 0.02959,4.24392 1.219822,-0.31431 c 2.935718,-0.75648 5.424004,-2.09839 7.989586,-4.30872 2.247858,-1.93661 4.562149,-4.96448 6.008036,-7.86051 0.234309,-0.46932 0.405203,-0.87415 0.379765,-0.89962 -0.02547,-0.0256 -2.26186,-0.0165 -4.969809,0.0201 l -4.923559,0.0665 -0.05998,1.0422 c -0.033,0.5732 -0.06079,1.73975 -0.06169,2.5923 -9.99e-4,0.85255 -0.02718,1.64522 -0.05828,1.76148 -0.05477,0.20478 -0.09289,0.21138 -1.21854,0.21138 h -1.161956 v -2.99184 c 0,-1.6455 0.02738,-3.3788 0.06099,-3.85176 l 0.06099,-0.85995 h 7.639602 7.639592 l -0.065,0.21137 c -0.03581,0.11626 -0.316211,0.78211 -0.623232,1.47965 -3.117426,7.08276 -8.544078,12.24094 -15.457281,14.69258 -1.010451,0.35832 -2.830144,0.84182 -3.571881,0.94905 -0.232243,0.0335 -0.496142,0.082 -0.586449,0.10748 -0.155729,0.0439 -0.164214,-0.52819 -0.164214,-11.07699 v -11.12343 l 7.81154,-0.0623 c 4.296343,-0.0344 10.40248,-0.0624 13.569197,-0.0625 l 5.757668,-6e-5 z"
       id="path109"
       inkscape:connector-curvature="0"
       inkscape:export-xdpi="96"
       inkscape:export-ydpi="96" />
    <path
       style="fill:#d4aa00;fill-opacity:1;stroke-width:0.09388897"
       d="m 19.580444,244.49036 0.08372,-0.92457 12.476428,-0.055 c 6.862037,-0.0303 12.493789,-0.0724 12.515008,-0.0936 0.02121,-0.0213 0.02781,-4.14223 0.01464,-9.15774 l -0.02391,-9.11911 -1.051463,0.26534 c -3.405772,0.8595 -6.210153,2.47295 -8.976961,5.16475 -1.712726,1.66631 -3.141427,3.48758 -4.365493,5.56503 -0.518342,0.87971 -1.247852,2.34014 -1.195252,2.3928 0.01762,0.0177 2.251963,0.003 4.965205,-0.0319 4.896991,-0.0633 4.933553,-0.0653 4.985775,-0.26005 0.02893,-0.10788 0.05337,-0.91485 0.05431,-1.79324 0.0011,-0.8784 0.02908,-2.07268 0.06253,-2.65397 l 0.06083,-1.05689 h 1.158566 1.158568 v 3.84376 3.84376 l -0.680284,0.0596 c -0.374157,0.0328 -3.834032,0.047 -7.688614,0.0316 l -7.008328,-0.0282 0.276969,-0.70459 c 0.878793,-2.2356 2.797308,-5.55723 4.259524,-7.37474 3.99481,-4.96548 9.498176,-8.23431 15.649636,-9.29541 l 0.351869,-0.0606 v 11.12133 11.12134 l -8.656026,0.0624 c -4.760812,0.0344 -10.873386,0.0624 -13.583494,0.0624 l -4.92747,6e-5 z"
       id="path111"
       inkscape:connector-curvature="0"
       inkscape:export-xdpi="96"
       inkscape:export-ydpi="96" />
    <path
       style="fill:#d4aa00;fill-opacity:1;stroke-width:0.09388897"
       d="m 19.874735,250.82508 c 0.03461,0.34878 0.08646,0.77153 0.115203,0.93945 l 0.05227,0.30533 h 7.386857 c 4.062777,0 9.667405,0.0281 12.454727,0.0622 l 5.067872,0.0621 0.05326,9.12102 c 0.02929,5.01657 0.04203,9.13246 0.02829,9.14643 -0.05888,0.0598 -2.285844,-0.56706 -3.124607,-0.8796 -4.062416,-1.51376 -7.827189,-4.69172 -10.611894,-8.95779 -0.698162,-1.06957 -1.892115,-3.25831 -1.892115,-3.46862 0,-0.0838 1.178937,-0.0956 4.902733,-0.0495 2.696505,0.0335 4.930851,0.0871 4.965207,0.11924 0.03441,0.0322 0.09289,1.31621 0.130159,2.85339 l 0.06771,2.79488 1.183482,3e-5 1.183482,4e-5 -0.02547,-3.83932 -0.02547,-3.83931 -0.433309,-0.0594 c -0.778479,-0.10683 -14.85729,-0.0696 -14.85729,0.0393 0,0.19258 0.779873,1.94071 1.475879,3.30825 2.670976,5.24801 6.681813,9.24872 11.793679,11.76392 2.219771,1.0922 4.564616,1.86473 6.834,2.25153 l 0.35187,0.0599 v -11.12134 -11.12133 l -8.656021,-0.0623 c -4.760809,-0.0343 -10.867177,-0.0624 -13.569689,-0.0624 l -4.913668,-5e-5 z"
       id="path113"
       inkscape:connector-curvature="0"
       inkscape:export-xdpi="96"
       inkscape:export-ydpi="96" />
    <path
       style="fill:#d4aa00;fill-opacity:1;stroke-width:0.09388897"
       d="m 79.717549,244.67905 c -0.03461,-0.34877 -0.08646,-0.77152 -0.115203,-0.93945 l -0.05226,-0.30532 -6.768941,-8e-5 c -3.722914,-5e-5 -9.327592,-0.0281 -12.454837,-0.0622 l -5.685908,-0.0621 -0.05277,-9.12098 c -0.02899,-5.01653 -0.04203,-9.13206 -0.02889,-9.14559 0.05998,-0.0619 2.260447,0.55456 3.10239,0.86929 4.086961,1.52776 7.798721,4.65038 10.614381,8.92964 0.673697,1.02389 1.912228,3.29379 1.912228,3.50461 0,0.0814 -1.223214,0.0938 -4.902735,0.0494 -2.696504,-0.0324 -4.93085,-0.0854 -4.965206,-0.11751 -0.03441,-0.0322 -0.09299,-1.31616 -0.130169,-2.85335 l -0.06771,-2.79489 -1.183481,-3e-5 -1.183492,-3e-5 0.02547,3.83765 0.02548,3.83766 0.997811,0.0611 c 1.655601,0.10141 14.292798,0.0734 14.292798,-0.0318 0,-0.20344 -0.716659,-1.81891 -1.429667,-3.22266 -3.298551,-6.4942 -8.65893,-11.13122 -15.394488,-13.31706 -0.767886,-0.24919 -2.367113,-0.63437 -3.279403,-0.78987 l -0.35187,-0.0599 v 11.12133 11.12132 l 9.023419,0.0624 c 4.962889,0.0344 11.069256,0.0625 13.569699,0.0625 h 4.54627 z"
       id="path115"
       inkscape:connector-curvature="0"
       inkscape:export-xdpi="96"
       inkscape:export-ydpi="96" />
    <path
       style="fill:#5f8dd3;fill-opacity:1;stroke-width:0.18777795"
       d="m 47.375133,290.96032 c -8.114861,-0.56016 -16.661346,-3.77078 -23.120115,-8.68543 -8.6694,-6.59681 -14.3753389,-15.79004 -16.6422801,-26.81357 -0.4999512,-2.43113 -0.7189592,-9.7804 -0.3882675,-13.02909 0.5540502,-5.44297 2.6308699,-11.67677 5.6103776,-16.84014 3.463042,-6.00132 8.954533,-11.62527 14.867809,-15.22644 14.440872,-8.79448 32.779635,-8.46046 46.715768,0.85087 5.142019,3.4356 10.007188,8.50437 13.128165,13.67754 1.209922,2.00553 3.011761,5.73809 3.780951,7.83239 0.8865,2.4137 1.800124,6.19559 2.156057,8.92484 0.412565,3.16356 0.41759,8.78274 0.01053,11.7766 -1.419827,10.44234 -6.972797,20.5762 -14.934397,27.25442 -8.698501,7.29637 -20.072563,11.04509 -31.1846,10.27801 z m 8.383364,-7.03303 c 3.693243,-0.63674 6.441807,-1.50837 9.811928,-3.11165 4.111215,-1.95581 7.332189,-4.28838 10.657102,-7.71766 5.610315,-5.78643 9.018484,-12.93593 10.017257,-21.01378 0.445679,-3.60446 0.162951,-9.17972 -0.64549,-12.72898 -2.060914,-9.04789 -7.995965,-17.42377 -16.047452,-22.64711 -4.059305,-2.63344 -9.098619,-4.51747 -14.262565,-5.33227 -2.684627,-0.42361 -8.231157,-0.42533 -10.884479,-0.003 -15.44382,2.4559 -27.237167,13.71727 -30.528594,29.15151 -0.490468,2.29992 -0.520894,2.71696 -0.520894,7.13987 0,4.42291 0.03042,4.83996 0.520894,7.13987 1.280354,6.00387 3.842381,11.4332 7.580751,16.06473 1.462472,1.81188 4.631991,4.87849 6.433368,6.22446 5.062645,3.78274 11.343417,6.27972 17.889163,7.112 1.886479,0.23987 7.957047,0.071 9.979011,-0.27759 z"
       id="path129"
       inkscape:connector-curvature="0"
       inkscape:export-xdpi="96"
       inkscape:export-ydpi="96" />
  </g>
</svg>
